<svg width="90" height="90" viewBox="0 0 90 90" fill="none" xmlns="http://www.w3.org/2000/svg">
<g filter="url(#filter0_d)">
<path fill-rule="evenodd" clip-rule="evenodd" d="M45 83C67.0914 83 85 65.0914 85 43C85 20.9086 67.0914 3 45 3C22.9086 3 5 20.9086 5 43C5 65.0914 22.9086 83 45 83Z" fill="url(#paint0_linear)"/>
<path fill-rule="evenodd" clip-rule="evenodd" d="M44.5 37.7503L69.2487 48.5L44.5 59.2497L19.7513 48.5L44.5 37.7503Z" fill="white" fill-opacity="0.399457"/>
<path fill-rule="evenodd" clip-rule="evenodd" d="M44.5 25.7503L69.2487 36.5L44.5 47.2497L19.7513 36.5L44.5 25.7503Z" fill="url(#paint1_linear)"/>
</g>
<defs>
<filter id="filter0_d" x="0" y="0" width="90" height="90" filterUnits="userSpaceOnUse" color-interpolation-filters="sRGB">
<feFlood flood-opacity="0" result="BackgroundImageFix"/>
<feColorMatrix in="SourceAlpha" type="matrix" values="0 0 0 0 0 0 0 0 0 0 0 0 0 0 0 0 0 0 127 0"/>
<feOffset dy="2"/>
<feGaussianBlur stdDeviation="2.5"/>
<feColorMatrix type="matrix" values="0 0 0 0 0.290196 0 0 0 0 0.290196 0 0 0 0 0.290196 0 0 0 0.5 0"/>
<feBlend mode="normal" in2="BackgroundImageFix" result="effect1_dropShadow"/>
<feBlend mode="normal" in="SourceGraphic" in2="effect1_dropShadow" result="shape"/>
</filter>
<linearGradient id="paint0_linear" x1="5" y1="3" x2="5" y2="83" gradientUnits="userSpaceOnUse">
<stop stop-color="#1B71B9"/>
<stop offset="1" stop-color="#0084FF" stop-opacity="0.74"/>
</linearGradient>
<linearGradient id="paint1_linear" x1="30.1797" y1="20.7809" x2="30.3516" y2="49.6367" gradientUnits="userSpaceOnUse">
<stop stop-color="white" stop-opacity="0.700662"/>
<stop offset="1" stop-color="white"/>
</linearGradient>
</defs>
</svg>
